G04*
G04 #@! TF.GenerationSoftware,Altium Limited,Altium Designer,24.8.2 (39)*
G04*
G04 Layer_Color=8388736*
%FSLAX44Y44*%
%MOMM*%
G71*
G04*
G04 #@! TF.SameCoordinates,0CE2364C-DE86-47B0-8F42-6A72043F3B29*
G04*
G04*
G04 #@! TF.FilePolarity,Negative*
G04*
G01*
G75*
G04:AMPARAMS|DCode=18|XSize=2.4692mm|YSize=0.6221mm|CornerRadius=0.3111mm|HoleSize=0mm|Usage=FLASHONLY|Rotation=180.000|XOffset=0mm|YOffset=0mm|HoleType=Round|Shape=RoundedRectangle|*
%AMROUNDEDRECTD18*
21,1,2.4692,0.0000,0,0,180.0*
21,1,1.8470,0.6221,0,0,180.0*
1,1,0.6221,-0.9235,0.0000*
1,1,0.6221,0.9235,0.0000*
1,1,0.6221,0.9235,0.0000*
1,1,0.6221,-0.9235,0.0000*
%
%ADD18ROUNDEDRECTD18*%
%ADD19R,2.4692X0.6221*%
%ADD20R,1.4032X1.6532*%
G04:AMPARAMS|DCode=21|XSize=0.8032mm|YSize=1.6532mm|CornerRadius=0.1526mm|HoleSize=0mm|Usage=FLASHONLY|Rotation=0.000|XOffset=0mm|YOffset=0mm|HoleType=Round|Shape=RoundedRectangle|*
%AMROUNDEDRECTD21*
21,1,0.8032,1.3480,0,0,0.0*
21,1,0.4980,1.6532,0,0,0.0*
1,1,0.3052,0.2490,-0.6740*
1,1,0.3052,-0.2490,-0.6740*
1,1,0.3052,-0.2490,0.6740*
1,1,0.3052,0.2490,0.6740*
%
%ADD21ROUNDEDRECTD21*%
%ADD22R,1.6532X1.4032*%
%ADD23R,1.2032X1.5032*%
%ADD24C,1.4500*%
%ADD25R,1.4500X1.4500*%
%ADD26C,1.5700*%
%ADD27R,1.5700X1.5700*%
%ADD28C,1.2500*%
%ADD29R,1.2500X1.2500*%
%ADD30C,0.8032*%
D18*
X395864Y80950D02*
D03*
Y93650D02*
D03*
Y106350D02*
D03*
Y119050D02*
D03*
X444136D02*
D03*
Y106350D02*
D03*
Y93650D02*
D03*
D19*
Y80950D02*
D03*
D20*
X310000Y110000D02*
D03*
X330000D02*
D03*
Y60000D02*
D03*
X310000D02*
D03*
D21*
X258100Y114500D02*
D03*
X245400D02*
D03*
X232700D02*
D03*
X220000D02*
D03*
X207300D02*
D03*
X194600D02*
D03*
X181900D02*
D03*
X169200D02*
D03*
X258100Y60000D02*
D03*
X245400D02*
D03*
X232700D02*
D03*
X220000D02*
D03*
X207300D02*
D03*
X194600D02*
D03*
X181900D02*
D03*
X169200D02*
D03*
D22*
X280000Y190000D02*
D03*
Y170000D02*
D03*
X220000Y190000D02*
D03*
Y170000D02*
D03*
X400000Y190000D02*
D03*
Y170000D02*
D03*
X340000Y190000D02*
D03*
Y170000D02*
D03*
X520000Y190000D02*
D03*
Y170000D02*
D03*
X460000Y190000D02*
D03*
Y170000D02*
D03*
X580000Y190000D02*
D03*
Y170000D02*
D03*
X160000Y190000D02*
D03*
Y170000D02*
D03*
X40000Y190000D02*
D03*
Y170000D02*
D03*
X100000Y190000D02*
D03*
Y170000D02*
D03*
D23*
X510000Y120000D02*
D03*
X525000D02*
D03*
Y70000D02*
D03*
X510000D02*
D03*
D24*
X40000Y237300D02*
D03*
X520000D02*
D03*
X160000D02*
D03*
X460000Y240000D02*
D03*
X400000D02*
D03*
X220000Y237300D02*
D03*
X100000D02*
D03*
X282700D02*
D03*
X342700D02*
D03*
X582700D02*
D03*
D25*
X40000Y262700D02*
D03*
X520000D02*
D03*
X160000D02*
D03*
X460000Y265400D02*
D03*
X400000D02*
D03*
X220000Y262700D02*
D03*
X100000D02*
D03*
X282700D02*
D03*
X342700D02*
D03*
X582700D02*
D03*
D26*
X570000Y112700D02*
D03*
D27*
Y87300D02*
D03*
D28*
X70000Y64450D02*
D03*
X95400Y89850D02*
D03*
D29*
X44600D02*
D03*
D30*
X148661Y116141D02*
D03*
X305394Y158320D02*
D03*
X374990Y106350D02*
D03*
X246974Y146128D02*
D03*
X515706Y160098D02*
D03*
X227670Y131650D02*
D03*
X426044D02*
D03*
M02*
