M48
;Layer_Color=9474304
;FILE_FORMAT=4:4
METRIC,LZ
;TYPE=PLATED
T01F00S00C0.3000
T02F00S00C0.7500
T03F00S00C0.9500
T04F00S00C1.0200
%
T01
X0022767Y0013165
X00246974Y00146128
X00305394Y0015832
X0037499Y0010635
X00426044Y0013165
X00515706Y00160098
X00148661Y00116141
T02
X0007Y0006445
X000954Y0008985
X000446
T03
X0022Y002373
Y002627
X002827
Y002373
X003427
Y002627
X004Y002654
Y0024
X0046
Y002654
X0052Y002627
Y002373
X005827
Y002627
X0016
Y002373
X001
Y002627
X0004
Y002373
T04
X0057Y000873
Y001127
M30
