G04*
G04 #@! TF.GenerationSoftware,Altium Limited,Altium Designer,24.8.2 (39)*
G04*
G04 Layer_Physical_Order=1*
G04 Layer_Color=255*
%FSLAX44Y44*%
%MOMM*%
G71*
G04*
G04 #@! TF.SameCoordinates,0CE2364C-DE86-47B0-8F42-6A72043F3B29*
G04*
G04*
G04 #@! TF.FilePolarity,Positive*
G04*
G01*
G75*
%ADD14R,1.2000X1.4500*%
G04:AMPARAMS|DCode=15|XSize=0.6mm|YSize=1.45mm|CornerRadius=0.051mm|HoleSize=0mm|Usage=FLASHONLY|Rotation=0.000|XOffset=0mm|YOffset=0mm|HoleType=Round|Shape=RoundedRectangle|*
%AMROUNDEDRECTD15*
21,1,0.6000,1.3480,0,0,0.0*
21,1,0.4980,1.4500,0,0,0.0*
1,1,0.1020,0.2490,-0.6740*
1,1,0.1020,-0.2490,-0.6740*
1,1,0.1020,-0.2490,0.6740*
1,1,0.1020,0.2490,0.6740*
%
%ADD15ROUNDEDRECTD15*%
%ADD16R,1.4500X1.2000*%
%ADD17R,1.0000X1.3000*%
G04:AMPARAMS|DCode=18|XSize=2.4692mm|YSize=0.6221mm|CornerRadius=0.3111mm|HoleSize=0mm|Usage=FLASHONLY|Rotation=180.000|XOffset=0mm|YOffset=0mm|HoleType=Round|Shape=RoundedRectangle|*
%AMROUNDEDRECTD18*
21,1,2.4692,0.0000,0,0,180.0*
21,1,1.8470,0.6221,0,0,180.0*
1,1,0.6221,-0.9235,0.0000*
1,1,0.6221,0.9235,0.0000*
1,1,0.6221,0.9235,0.0000*
1,1,0.6221,-0.9235,0.0000*
%
%ADD18ROUNDEDRECTD18*%
%ADD19R,2.4692X0.6221*%
%ADD24C,1.4500*%
%ADD25R,1.4500X1.4500*%
%ADD26C,1.5700*%
%ADD27R,1.5700X1.5700*%
%ADD28C,1.2500*%
%ADD29R,1.2500X1.2500*%
%ADD31C,0.3000*%
%ADD32C,0.5000*%
%ADD33C,0.6000*%
D14*
X310000Y110000D02*
D03*
X330000D02*
D03*
Y60000D02*
D03*
X310000D02*
D03*
D15*
X258100Y114500D02*
D03*
X245400D02*
D03*
X232700D02*
D03*
X220000D02*
D03*
X207300D02*
D03*
X194600D02*
D03*
X181900D02*
D03*
X169200D02*
D03*
X258100Y60000D02*
D03*
X245400D02*
D03*
X232700D02*
D03*
X220000D02*
D03*
X207300D02*
D03*
X194600D02*
D03*
X181900D02*
D03*
X169200D02*
D03*
D16*
X280000Y190000D02*
D03*
Y170000D02*
D03*
X220000Y190000D02*
D03*
Y170000D02*
D03*
X400000Y190000D02*
D03*
Y170000D02*
D03*
X340000Y190000D02*
D03*
Y170000D02*
D03*
X520000Y190000D02*
D03*
Y170000D02*
D03*
X460000Y190000D02*
D03*
Y170000D02*
D03*
X580000Y190000D02*
D03*
Y170000D02*
D03*
X160000Y190000D02*
D03*
Y170000D02*
D03*
X40000Y190000D02*
D03*
Y170000D02*
D03*
X100000Y190000D02*
D03*
Y170000D02*
D03*
D17*
X510000Y120000D02*
D03*
X525000D02*
D03*
Y70000D02*
D03*
X510000D02*
D03*
D18*
X395864Y80950D02*
D03*
Y93650D02*
D03*
Y106350D02*
D03*
Y119050D02*
D03*
X444136D02*
D03*
Y106350D02*
D03*
Y93650D02*
D03*
D19*
Y80950D02*
D03*
D24*
X40000Y237300D02*
D03*
X520000D02*
D03*
X160000D02*
D03*
X460000Y240000D02*
D03*
X400000D02*
D03*
X220000Y237300D02*
D03*
X100000D02*
D03*
X282700D02*
D03*
X342700D02*
D03*
X582700D02*
D03*
D25*
X40000Y262700D02*
D03*
X520000D02*
D03*
X160000D02*
D03*
X460000Y265400D02*
D03*
X400000D02*
D03*
X220000Y262700D02*
D03*
X100000D02*
D03*
X282700D02*
D03*
X342700D02*
D03*
X582700D02*
D03*
D26*
X570000Y112700D02*
D03*
D27*
Y87300D02*
D03*
D28*
X70000Y64450D02*
D03*
X95400Y89850D02*
D03*
D29*
X44600D02*
D03*
D31*
X521090Y80950D02*
X525000Y77040D01*
X510000Y92040D02*
X521090Y80950D01*
X161630Y49100D02*
X220000D01*
X433664Y70690D02*
X510000D01*
X525375Y190000D02*
Y231925D01*
X330000Y99778D02*
Y110000D01*
Y60000D02*
Y99778D01*
X220000Y49100D02*
Y60000D01*
Y49100D02*
X242656D01*
X245400Y60000D01*
X510000Y92040D02*
Y120000D01*
X444136Y80950D02*
X521090D01*
X525000Y70000D02*
Y77040D01*
X181900Y60000D02*
Y72549D01*
X148661Y105788D02*
X181900Y72549D01*
X148661Y105788D02*
Y116141D01*
X305394Y158320D02*
X317074Y170000D01*
X340000D01*
X40000D02*
X57236D01*
X57490Y263984D01*
X67650Y274144D01*
X114132D01*
X125308Y262968D01*
Y152775D02*
Y262968D01*
Y152775D02*
X159133Y118950D01*
Y103921D02*
Y118950D01*
Y103921D02*
X194600Y68454D01*
Y60000D02*
Y68454D01*
X337305Y93650D02*
X395864D01*
X337305Y92473D02*
Y93650D01*
X330000Y99778D02*
X337305Y92473D01*
X89240Y251940D02*
X100000Y262700D01*
X89240Y121490D02*
Y251940D01*
Y121490D02*
X161630Y49100D01*
X160000Y262700D02*
X175146Y247553D01*
Y125196D02*
Y247553D01*
X169200Y119250D02*
X175146Y125196D01*
X169200Y114500D02*
Y119250D01*
X510000Y252700D02*
X520000Y262700D01*
X510000Y120000D02*
Y252700D01*
X428076Y76278D02*
Y91264D01*
Y76278D02*
X433664Y70690D01*
X395864Y106350D02*
X412990D01*
X428076Y91264D01*
X510000Y70000D02*
Y70690D01*
X520000Y190000D02*
X525375D01*
X520000Y237300D02*
X525375Y231925D01*
X160000Y128803D02*
Y170000D01*
Y128803D02*
X163408Y125394D01*
Y105742D02*
Y125394D01*
Y105742D02*
X165440Y103710D01*
X191856D01*
X194600Y106454D01*
Y114500D01*
X70000Y64450D02*
X94968Y39482D01*
X299552D01*
X310000Y49930D01*
Y60000D01*
X232700D02*
Y69624D01*
X239304D01*
X314792Y145112D01*
X406590D01*
X441134Y179656D01*
X468208D01*
X471002Y176862D01*
Y115240D02*
Y176862D01*
X462112Y106350D02*
X471002Y115240D01*
X444136Y106350D02*
X462112D01*
D32*
X525000Y127482D02*
X571690D01*
X510000Y120000D02*
X519008Y107774D01*
X551266D01*
X556192Y112700D01*
X570000D01*
X374990Y106350D02*
X395864D01*
X430462Y93650D02*
X444136D01*
X428076Y91264D02*
X430462Y93650D01*
X428076Y91264D02*
X444136Y93650D01*
X580000Y190000D02*
Y212168D01*
X582700Y214868D01*
Y237300D01*
X460000Y190000D02*
Y240000D01*
X400000Y190000D02*
Y240000D01*
X340000Y190000D02*
Y212168D01*
X342700Y214868D01*
Y237300D01*
X280000Y190000D02*
Y212168D01*
X282700Y214868D01*
Y237300D01*
X220000Y190000D02*
Y237300D01*
X160000Y190000D02*
Y237300D01*
X100000Y190000D02*
Y237300D01*
X40000Y190000D02*
Y237300D01*
X232700Y103710D02*
Y114500D01*
Y103710D02*
X264500D01*
X318094Y157304D01*
X410296D01*
X419440Y166448D01*
Y275414D01*
X420202Y276176D01*
X539328D01*
X569046Y246458D01*
Y172544D02*
Y246458D01*
Y172544D02*
X571590Y170000D01*
X580000D01*
X245400Y114500D02*
Y144554D01*
X246974Y146128D01*
X515706Y160098D02*
X517714D01*
X520000Y162384D01*
Y170000D01*
X220000Y114500D02*
Y123980D01*
X227670Y131650D01*
X426044D02*
X449586D01*
X460000Y142064D01*
Y170000D01*
X181900Y114500D02*
Y157254D01*
X204302Y179656D01*
X358988D01*
X368644Y170000D01*
X400000D01*
X258100Y114500D02*
Y161060D01*
X267040Y170000D01*
X280000D01*
X207300Y114500D02*
Y135714D01*
X220000Y148414D01*
Y170000D01*
X100000Y127204D02*
Y170000D01*
Y127204D02*
X143323Y83881D01*
X156264D01*
X169200Y70944D01*
Y60000D02*
Y70944D01*
X258100Y60000D02*
Y73993D01*
X294108Y110000D01*
X310000D01*
X320380Y112540D01*
Y120728D01*
X330032Y130380D01*
X410650D01*
X421980Y119050D01*
X444136D01*
X310000Y110000D02*
X317840D01*
X320126Y107714D01*
Y48592D02*
Y107714D01*
Y48592D02*
X324190Y44528D01*
X336890D01*
X373312Y80950D01*
X395864D01*
Y67850D02*
Y80950D01*
Y67850D02*
X405216Y58498D01*
X541198D01*
X570000Y87300D01*
X581492Y98792D01*
Y117680D01*
X571690Y127482D02*
X581492Y117680D01*
X525000Y120000D02*
Y127482D01*
D33*
X148661Y116141D02*
D03*
X305394Y158320D02*
D03*
X374990Y106350D02*
D03*
X246974Y146128D02*
D03*
X515706Y160098D02*
D03*
X227670Y131650D02*
D03*
X426044D02*
D03*
M02*
